<?xml version="1.0" encoding="UTF-8"?>
<svg width="211px" height="52px" viewBox="0 0 211 52" version="1.1" xmlns="http://www.w3.org/2000/svg" xmlns:xlink="http://www.w3.org/1999/xlink">
    <!-- Generator: Sketch 52.5 (67469) - http://www.bohemiancoding.com/sketch -->
    <title>logo_p-pdark</title>
    <desc>Created with Sketch.</desc>
    <defs>
        <path d="M122.623882,44.8509333 C121.813653,44.8538581 121.005458,44.7702439 120.213239,44.6015333 C119.58407,44.4878776 118.980672,44.2625899 118.431961,43.9364667 L119.188355,38.98 C120.048293,39.4001046 120.995783,39.6132125 121.954098,39.6020667 C122.912266,39.6420555 123.844735,39.2884916 124.532187,38.6245333 C125.186573,37.9728444 125.891963,36.7449556 126.648357,34.9408667 L127.40475,33.1520667 L118.48104,13.0882667 L124.803565,13.0882667 L130.464967,27.3671333 L135.704868,13.0882667 L141.952331,13.0882667 L132.601346,35.4024 C131.5678,37.8696444 130.568899,39.7807556 129.604642,41.1357333 C128.640385,42.4907111 127.613576,43.4462667 126.524216,44.0024 C125.313477,44.5974945 123.974293,44.8888395 122.623882,44.8509333 Z M109.182021,0.208333333 L115.080157,0.208333333 L115.080157,34.4621333 L109.182021,34.4621333 L109.182021,0.208333333 Z M96.2511584,35.0154 C93.7336965,35.0154 91.5338043,34.5662889 89.6514818,33.6680667 C87.8247211,32.8196662 86.2954198,31.447896 85.2603584,29.7292667 C84.2114159,28.0092667 83.687907,25.9796667 83.6898317,23.6404667 C83.6577223,21.6143713 84.1234607,19.6110398 85.0467206,17.8039333 C85.922509,16.1083942 87.2611275,14.6917819 88.9095234,13.7160667 C90.6714782,12.6940943 92.6838725,12.1761836 94.7239366,12.2196667 C96.5956521,12.1790202 98.4459367,12.6215417 100.093752,13.5039333 C101.626642,14.3609063 102.874695,15.6430064 103.685177,17.1933333 C104.549352,18.7967556 104.980477,20.6935333 104.978552,22.8836667 C104.985747,23.7310718 104.915205,24.5773669 104.767801,25.4120667 L89.5331149,25.4120667 C90.2664123,28.6131778 92.713624,30.2146889 96.8747499,30.2166 C98.1510637,30.2186575 99.4238828,30.0841025 100.671152,29.8152667 C101.82708,29.5781805 102.947017,29.1927211 104.002747,28.6686 L104.597469,33.2552667 C103.426343,33.8681654 102.170392,34.3057636 100.870355,34.5538667 C99.3510046,34.8669807 97.8028738,35.0216643 96.2511584,35.0154 Z M99.3344719,21.3213333 C99.1939713,19.8325778 98.7060687,18.6859111 97.8707641,17.8813333 C97.0354594,17.0767556 95.9249277,16.6763778 94.5391688,16.6802 C93.3075279,16.6352278 92.1062214,17.0657212 91.1873645,17.8813333 C90.3097173,18.6801778 89.7438657,19.8268444 89.4898099,21.3213333 L99.3344719,21.3213333 Z M71.7925144,35.0154 C70.2182251,35.021773 68.6495231,34.8291131 67.1242392,34.4420667 C65.6518704,34.0598444 64.5201674,33.5610444 63.72913,32.9456667 L64.4508794,28.1841333 C65.4909683,28.86863 66.6285975,29.3943033 67.8257797,29.7436 C69.0266649,30.1235684 70.2781325,30.322625 71.5384586,30.3341333 C73.94429,30.3341333 75.1462433,29.7302222 75.1443187,28.5224 C75.1727302,27.9307239 74.8825227,27.3685862 74.3821513,27.0460667 C73.8711527,26.7106667 72.8116246,26.3150667 71.2064539,25.8678667 C68.660122,25.1645778 66.8422758,24.2720889 65.7529154,23.1904 C64.6635549,22.1087111 64.1188747,20.6553111 64.1188747,18.8302 C64.1188747,16.7776667 64.8974017,15.1618222 66.4544558,13.9826667 C68.0115099,12.8035111 70.1488504,12.2158444 72.8664775,12.2196667 C74.2098182,12.2215322 75.5485105,12.3763887 76.8563083,12.6812 C78.0025348,12.9200738 79.1048354,13.3329427 80.1243896,13.9052667 L79.4315102,18.5406667 C78.4800809,18.0045888 77.4591791,17.6004542 76.3972757,17.3395333 C75.324088,17.0574278 74.2191293,16.9119724 73.1089853,16.9066667 C71.041895,16.9066667 70.0093122,17.4542 70.0112369,18.5492667 C69.9906376,19.1281375 70.2708125,19.6769636 70.7531953,20.0026667 C71.2459095,20.3562222 72.2294134,20.7384444 73.7037069,21.1493333 C76.4174846,21.9386222 78.3334887,22.8655111 79.4517191,23.93 C80.5699496,24.9944889 81.1290648,26.4756 81.1290648,28.3733333 C81.191914,30.3117613 80.2561522,32.1484965 78.6462468,33.2466667 C76.9929595,34.4277333 74.708382,35.0173111 71.7925144,35.0154 Z M56.7368217,8.5102 C55.7934946,8.54033258 54.879476,8.18248603 54.2106988,7.5212 C53.5537198,6.88513802 53.1919905,6.00690704 53.2117976,5.096 C53.1900765,4.19229366 53.5526843,3.32129525 54.2106988,2.6966 C55.6422314,1.40430297 57.8285251,1.40430297 59.2600577,2.6966 C59.9168668,3.32211326 60.2792448,4.19255956 60.2589589,5.096 C60.2858567,6.01407918 59.9234567,6.90121879 59.2600577,7.54126667 C58.5859892,8.19045962 57.67539,8.54013359 56.7368217,8.5102 Z M53.8122931,12.8933333 L59.7104293,12.8933333 L59.7104293,34.4621333 L53.8122931,34.4621333 L53.8122931,12.8933333 Z M36.3488444,35.0154 C34.5464085,35.0415874 32.7734758,34.5594774 31.2359716,33.6250667 C29.6855476,32.6604089 28.4414926,31.28002 27.6474336,29.6432667 C26.74299,27.7860927 26.2929198,25.7431181 26.3338496,23.6806 C26.3103478,21.7030009 26.7532841,19.747386 27.6272246,17.9702 C28.4559587,16.2820773 29.7212252,14.8427086 31.2937116,13.7992 C32.8738596,12.7474578 34.7382642,12.1966735 36.6404312,12.2196667 C38.0305927,12.2011256 39.4052074,12.5116506 40.6504709,13.1255333 C41.8196503,13.7022068 42.8094203,14.5829618 43.5143726,15.674 L43.6009825,12.8933333 L49.2508369,12.8933333 L49.2508369,34.3417333 L43.6067565,34.3417333 L43.5201466,31.6040667 C42.8044638,32.7094507 41.790006,33.5925886 40.592731,34.1525333 C39.2609856,34.7519706 37.8106867,35.0468453 36.3488444,35.0154 Z M37.9597891,29.8066667 C39.5187844,29.8556439 41.0218902,29.227655 42.0766478,28.0866667 C43.1525355,26.94 43.6904794,25.4512444 43.6904794,23.6204 C43.6904794,21.7895556 43.1602342,20.3065333 42.0997437,19.1713333 C41.0095401,18.0677194 39.5181029,17.4459117 37.9612326,17.4459117 C36.4043623,17.4459117 34.9129252,18.0677194 33.8227215,19.1713333 C32.7641557,20.318 32.2339105,21.7933778 32.2319858,23.5974667 C32.2300612,25.4015556 32.768005,26.8903111 33.8458175,28.0637333 C34.8956925,29.2124282 36.3981536,29.8489638 37.9597891,29.8066667 Z M0.258486998,2.31533333 L10.7411754,2.31533333 C14.4480804,2.31533333 17.3620233,3.2212 19.4830043,5.03293333 C21.6039852,6.84466667 22.662551,9.33866667 22.6587017,12.5149333 C22.6836522,14.3044964 22.1982292,16.0645582 21.2585078,17.5918 C20.2775936,19.1369547 18.9006253,20.3953983 17.2686771,21.2382 L25.883478,34.3417333 L18.590922,34.3417333 L11.6621277,22.8378 C11.1799991,22.8664667 10.7758194,22.8865333 10.4524757,22.9008667 C10.1291319,22.9152 9.82022317,22.9238 9.5401844,22.9238 L6.46553191,22.9238 L6.46553191,34.3417333 L0.258486998,34.3417333 L0.258486998,2.31533333 Z M6.46553191,17.738 L9.64122931,17.738 C14.0814317,17.738 16.3024952,16.0103556 16.3044199,12.5550667 C16.3044199,10.8981333 15.7597396,9.64157778 14.6703792,8.7854 C13.5810188,7.92922222 11.9748857,7.50017778 9.85198014,7.49826667 L6.46553191,7.49826667 L6.46553191,17.738 Z" id="path-1"></path>
        <path d="M11.683437,42.2424889 L26.0258074,26.0724148 L40.2815111,42.2733037 C36.4662519,45.6263407 31.4684741,47.6658963 26.0007704,47.6658963 C20.5157333,47.6658963 15.5044741,45.6147852 11.683437,42.2424889 M26.0007704,4.33256296 C37.9472889,4.33256296 47.667437,14.0527111 47.667437,25.9992296 C47.667437,30.9141926 46.0188444,35.4497481 43.2532148,39.0878222 L26.0392889,19.5281185 L8.71943704,39.0531556 C5.96921481,35.4208593 4.3341037,30.8987852 4.3341037,25.9992296 C4.3341037,14.0527111 14.0523259,4.33256296 26.0007704,4.33256296 M26.0007704,-0.00077037037 C11.6641778,-0.00077037037 0.00077037037,11.664563 0.00077037037,25.9992296 C0.00077037037,40.3358222 11.6641778,51.9992296 26.0007704,51.9992296 C40.335437,51.9992296 52.0007704,40.3358222 52.0007704,25.9992296 C52.0007704,11.664563 40.335437,-0.00077037037 26.0007704,-0.00077037037" id="path-3"></path>
    </defs>
    <g id="logo_p-pdark" stroke="none" stroke-width="1" fill="none" fill-rule="evenodd">
        <g id="Logo/Lockup">
            <g id="Logo/Type" transform="translate(68.922636, 6.651163)" fill-rule="evenodd" stroke-width="1">
                <g id="Type">
                    <mask id="mask-2" fill="white">
                        <use xlink:href="#path-1"></use>
                    </mask>
                    <g id="Mask"></g>
                    <g id="PurpleDarkest" mask="url(#mask-2)" fill="#262861">
                        <g transform="translate(-0.604255, -6.600000)" id="Color-Copy-10">
                            <polygon points="0 0 146 0 146 52 0 52"></polygon>
                        </g>
                    </g>
                </g>
            </g>
            <g id="Logo/icon">
                <mask id="mask-4" fill="white">
                    <use xlink:href="#path-3"></use>
                </mask>
                <use id="Fill-1" fill="#6138D8" fill-rule="evenodd" xlink:href="#path-3"></use>
                <g id="PurpleDark" mask="url(#mask-4)" fill="#6138D8" fill-rule="evenodd">
                    <polygon id="Color-Copy-13" points="0 0 52 0 52 52 0 52"></polygon>
                </g>
            </g>
        </g>
    </g>
</svg>